<svg width="47" height="40" viewBox="0 0 47 40" fill="none" xmlns="http://www.w3.org/2000/svg">
<path d="M46.4286 40V0H18.1114V8.75H35.7617V15.625H21.4043V24.375H35.7617V31.25H9.05568V40H46.4286Z" fill="#5E6165"/>
<path d="M0 40V0H16.9596C19.8758 0 22.4274 0.585938 24.6145 1.75781C26.8016 2.92969 28.5027 4.57682 29.7178 6.69922C30.9328 8.82161 31.5403 11.3021 31.5403 14.1406C31.5403 17.0052 30.9136 19.4857 29.6602 21.582C28.4196 23.6784 26.6737 25.293 24.4227 26.4258C22.1844 27.5586 19.5688 28.125 16.5759 28.125H6.4462V19.6875H14.4272C15.6806 19.6875 16.7486 19.4661 17.6311 19.0234C18.5264 18.5677 19.2107 17.9232 19.6839 17.0898C20.17 16.2565 20.413 15.2734 20.413 14.1406C20.413 12.9948 20.17 12.0182 19.6839 11.2109C19.2107 10.3906 18.5264 9.76562 17.6311 9.33594C16.7486 8.89323 15.6806 8.67187 14.4272 8.67187H10.6669V40H0Z" fill="#D0D1D2"/>
</svg>
